<?xml version="1.0" encoding="UTF-8" standalone="no"?>
<!-- Created with Inkscape (http://www.inkscape.org/) -->

<svg
   width="1024"
   height="1024"
   viewBox="0 0 270.93333 270.93333"
   version="1.1"
   id="svg1"
   xml:space="preserve"
   xmlns="http://www.w3.org/2000/svg"
   xmlns:svg="http://www.w3.org/2000/svg"><defs
     id="defs1"><clipPath
       clipPathUnits="userSpaceOnUse"
       id="clipPath54"><path
         style="fill:#1b211a;fill-opacity:1;stroke:none;stroke-width:0.182672px;stroke-linecap:butt;stroke-linejoin:miter;stroke-opacity:1"
         d="m 144.14046,271.45227 -11.87273,-42.13236 -19.25526,0.52588 0.18757,41.07852 28.98747,0.81512 z"
         id="path55" /></clipPath><clipPath
       clipPathUnits="userSpaceOnUse"
       id="clipPath56"><rect
         style="opacity:1;fill:#1b211a;fill-opacity:1;stroke:none;stroke-width:0.336805;stroke-linejoin:bevel;stroke-miterlimit:0.2;stroke-dasharray:90.6315, 90.6315"
         id="rect57"
         width="33.416965"
         height="66.833923"
         x="136.1256"
         y="162.33298" /></clipPath></defs><g
     id="layer1"><path
       id="circle21"
       style="opacity:1;fill:#93a48e;fill-opacity:1;stroke-width:2.30348;stroke-linejoin:bevel;stroke-miterlimit:0.2;stroke-dasharray:619.843, 619.843"
       d="M 135.46596,-8.492268e-6 A 135.46668,135.46668 0 0 0 -8.0987093e-8,135.46595 135.46668,135.46668 0 0 0 135.46596,270.93332 135.46668,135.46668 0 0 0 270.93333,135.46595 135.46668,135.46668 0 0 0 135.46596,-8.492268e-6 Z M 107.89169,26.98848 A 13.52214,13.52214 0 0 1 121.4134,40.510189 13.52214,13.52214 0 0 1 107.89169,54.031899 13.52214,13.52214 0 0 1 94.369983,40.510189 13.52214,13.52214 0 0 1 107.89169,26.98848 Z m 55.14991,0 A 13.52214,13.52214 0 0 1 176.56335,40.510189 13.52214,13.52214 0 0 1 163.0416,54.031899 13.52214,13.52214 0 0 1 149.51847,40.510189 13.52214,13.52214 0 0 1 163.0416,26.98848 Z M 63.307206,47.237073 A 13.52214,13.52214 0 0 1 76.828923,60.758782 13.52214,13.52214 0 0 1 63.307206,74.280491 13.52214,13.52214 0 0 1 49.784041,60.758782 13.52214,13.52214 0 0 1 63.307206,47.237073 Z m 144.318894,0 A 13.52214,13.52214 0 0 1 221.14785,60.758782 13.52214,13.52214 0 0 1 207.6261,74.280491 13.52214,13.52214 0 0 1 194.10439,60.758782 13.52214,13.52214 0 0 1 207.6261,47.237073 Z M 39.554167,86.564161 A 13.52214,13.52214 0 0 1 53.075884,100.08733 13.52214,13.52214 0 0 1 39.554167,113.60904 13.52214,13.52214 0 0 1 26.03245,100.08733 13.52214,13.52214 0 0 1 39.554167,86.564161 Z m 42.832994,0 A 13.52214,13.52214 0 0 1 95.908878,100.08733 13.52214,13.52214 0 0 1 82.387161,113.60904 13.52214,13.52214 0 0 1 68.863996,100.08733 13.52214,13.52214 0 0 1 82.387161,86.564161 Z m 106.158989,0 a 13.52214,13.52214 0 0 1 13.52174,13.523169 13.52214,13.52214 0 0 1 -13.52174,13.52171 13.52214,13.52214 0 0 1 -13.52171,-13.52171 13.52214,13.52214 0 0 1 13.52171,-13.523169 z m 42.833,0 a 13.52214,13.52214 0 0 1 13.52171,13.523169 13.52214,13.52214 0 0 1 -13.52171,13.52171 13.52214,13.52214 0 0 1 -13.52171,-13.52171 13.52214,13.52214 0 0 1 13.52171,-13.523169 z M 109.83846,121.88927 a 13.52214,13.52214 0 0 1 13.52171,13.52171 13.52214,13.52214 0 0 1 -13.52171,13.52317 13.52214,13.52214 0 0 1 -13.521718,-13.52317 13.52214,13.52214 0 0 1 13.521718,-13.52171 z m 51.25641,0 a 13.52214,13.52214 0 0 1 13.52171,13.52171 13.52214,13.52214 0 0 1 -13.52171,13.52317 13.52214,13.52214 0 0 1 -13.52317,-13.52317 13.52214,13.52214 0 0 1 13.52317,-13.52171 z M 39.554167,157.32286 A 13.52214,13.52214 0 0 1 53.075884,170.84602 13.52214,13.52214 0 0 1 39.554167,184.36773 13.52214,13.52214 0 0 1 26.03245,170.84602 13.52214,13.52214 0 0 1 39.554167,157.32286 Z m 42.832994,0 a 13.52214,13.52214 0 0 1 13.521717,13.52316 13.52214,13.52214 0 0 1 -13.521717,13.52171 13.52214,13.52214 0 0 1 -13.523165,-13.52171 13.52214,13.52214 0 0 1 13.523165,-13.52316 z m 106.158989,0 a 13.52214,13.52214 0 0 1 13.52174,13.52316 13.52214,13.52214 0 0 1 -13.52174,13.52171 13.52214,13.52214 0 0 1 -13.52171,-13.52171 13.52214,13.52214 0 0 1 13.52171,-13.52316 z m 42.833,0 a 13.52214,13.52214 0 0 1 13.52171,13.52316 13.52214,13.52214 0 0 1 -13.52171,13.52171 13.52214,13.52214 0 0 1 -13.52171,-13.52171 13.52214,13.52214 0 0 1 13.52171,-13.52316 z M 63.307206,196.6514 A 13.52214,13.52214 0 0 1 76.828923,210.17311 13.52214,13.52214 0 0 1 63.307206,223.69628 13.52214,13.52214 0 0 1 49.784041,210.17311 13.52214,13.52214 0 0 1 63.307206,196.6514 Z m 144.318894,0 a 13.52214,13.52214 0 0 1 13.52175,13.52171 13.52214,13.52214 0 0 1 -13.52175,13.52317 13.52214,13.52214 0 0 1 -13.52171,-13.52317 13.52214,13.52214 0 0 1 13.52171,-13.52171 z m -99.73441,20.24856 a 13.52214,13.52214 0 0 1 13.52171,13.52175 13.52214,13.52214 0 0 1 -13.52171,13.5217 13.52214,13.52214 0 0 1 -13.521707,-13.5217 13.52214,13.52214 0 0 1 13.521707,-13.52175 z m 55.14991,0 a 13.52214,13.52214 0 0 1 13.52175,13.52175 13.52214,13.52214 0 0 1 -13.52175,13.5217 13.52214,13.52214 0 0 1 -13.52313,-13.5217 13.52214,13.52214 0 0 1 13.52313,-13.52175 z" /></g></svg>
